<svg width="31" height="35" viewBox="0 0 31 35" fill="none" xmlns="http://www.w3.org/2000/svg">
<path d="M29.2836 20.8402C27.3677 24.1045 25.4221 27.1197 22.3081 29.4033C18.5245 32.1779 12.8875 34.8381 8.33373 32.1263C3.95708 29.52 2.06792 23.8273 2.48212 18.9862C2.76576 15.6712 3.6709 12.3943 6.17848 10.064C7.55393 8.7858 9.26842 7.9049 10.9293 7.07446" stroke="#1E1E1E" stroke-width="3" stroke-linecap="round"/>
<path d="M11.1378 2.27734C9.78974 3.62541 8.46806 4.21972 6.71144 4.91926C5.5212 5.39325 3.56255 6.11497 2.79492 7.0745" stroke="#1E1E1E" stroke-width="3" stroke-linecap="round"/>
<path d="M11.9721 2.69446C10.7213 3.65089 11.0689 6.64575 11.2305 7.95511C11.4784 9.96487 11.9869 12.6344 13.6407 13.9574" stroke="#1E1E1E" stroke-width="3" stroke-linecap="round"/>
</svg>
