<svg width="36" height="36" viewBox="0 0 36 36" fill="none" xmlns="http://www.w3.org/2000/svg">
<g clip-path="url(#clip0_452_743)" filter="url(#filter0_d_452_743)">
<path fill-rule="evenodd" clip-rule="evenodd" d="M5.70895 12.3014C12.0736 9.11024 19.7623 4.52936 26.426 1.44113C32.5556 -1.28682 32.4488 -0.540492 31.5518 6.84554C30.8257 12.7647 30.0141 18.7095 29.1811 24.6286C28.8821 27.4852 27.6433 28.9779 25.1018 27.2536L17.0926 20.4595C15.9607 19.3529 16.281 18.4779 17.1994 17.397L24.5892 8.98157C26.5327 6.63965 25.593 5.79039 23.3504 7.64333L13.2055 15.9044C11.7745 17.1397 10.2368 17.1397 8.59224 16.522L5.11093 15.0551C2.84701 14.0514 4.57699 12.9191 5.70895 12.3014Z" fill="#FFAA00"/>
</g>
<defs>
<filter id="filter0_d_452_743" x="0" y="0" width="36" height="36" filterUnits="userSpaceOnUse" color-interpolation-filters="sRGB">
<feFlood flood-opacity="0" result="BackgroundImageFix"/>
<feColorMatrix in="SourceAlpha" type="matrix" values="0 0 0 0 0 0 0 0 0 0 0 0 0 0 0 0 0 0 127 0" result="hardAlpha"/>
<feOffset dy="4"/>
<feGaussianBlur stdDeviation="2"/>
<feComposite in2="hardAlpha" operator="out"/>
<feColorMatrix type="matrix" values="0 0 0 0 0 0 0 0 0 0 0 0 0 0 0 0 0 0 0.25 0"/>
<feBlend mode="normal" in2="BackgroundImageFix" result="effect1_dropShadow_452_743"/>
<feBlend mode="normal" in="SourceGraphic" in2="effect1_dropShadow_452_743" result="shape"/>
</filter>
<clipPath id="clip0_452_743">
<rect width="28" height="28" fill="white" transform="translate(4)"/>
</clipPath>
</defs>
</svg>
