<svg width="33" height="33" viewBox="0 0 33 33" fill="none" xmlns="http://www.w3.org/2000/svg">
<path fill-rule="evenodd" clip-rule="evenodd" d="M2.75 16.5C2.75 8.90609 8.90609 2.75 16.5 2.75C24.0939 2.75 30.25 8.90609 30.25 16.5C30.25 20.7879 28.2873 24.6174 25.2112 27.139C24.6144 25.4679 23.5472 23.9982 22.131 22.9115C20.5156 21.6719 18.5362 21 16.5 21C14.4638 21 12.4844 21.6719 10.869 22.9115C9.45277 23.9982 8.38561 25.4679 7.78882 27.139C4.71275 24.6174 2.75 20.7879 2.75 16.5ZM20.9135 24.4982C22.1707 25.4629 23.077 26.8127 23.4941 28.3408C21.445 29.5538 19.0538 30.25 16.5 30.25C13.9462 30.25 11.555 29.5538 9.5059 28.3408C9.92303 26.8127 10.8293 25.4629 12.0865 24.4982C13.3527 23.5266 14.904 23 16.5 23C18.096 23 19.6474 23.5266 20.9135 24.4982ZM13.375 12.375C13.375 10.6491 14.7741 9.25 16.5 9.25C18.2259 9.25 19.625 10.6491 19.625 12.375C19.625 14.1009 18.2259 15.5 16.5 15.5C14.7741 15.5 13.375 14.1009 13.375 12.375ZM16.5 7.25C13.6695 7.25 11.375 9.54454 11.375 12.375C11.375 15.2055 13.6695 17.5 16.5 17.5C19.3305 17.5 21.625 15.2055 21.625 12.375C21.625 9.54454 19.3305 7.25 16.5 7.25Z" fill="#1E201F"/>
<rect x="3.75" y="3.75" width="25.5" height="25.5" rx="12.75" stroke="#1E201F" stroke-width="2"/>
</svg>
